<?xml version="1.0" encoding="UTF-8"?>
<svg width="32px" height="31px" viewBox="0 0 32 31" version="1.1" xmlns="http://www.w3.org/2000/svg" xmlns:xlink="http://www.w3.org/1999/xlink">
    <!-- Generator: sketchtool 52.4 (67378) - http://www.bohemiancoding.com/sketch -->
    <title>38EC860C-CD2B-4E6B-A93D-83337D9D5DA4</title>
    <desc>Created with sketchtool.</desc>
    <g id="Web" stroke="none" stroke-width="1" fill="none" fill-rule="evenodd" stroke-linecap="round" stroke-linejoin="round">
        <g id="01_Home" transform="translate(-367.000000, -589.000000)" stroke="#FFFFFF" stroke-width="1.875">
            <g id="background">
                <g id="Group-6" transform="translate(368.000000, 590.000000)">
                    <g id="icon_precipitation_info">
                        <path d="M23.6425714,6.93734133 C23.4816623,6.93734133 23.3223117,6.94662133 23.1633506,6.95783467 C23.1637403,6.90718133 23.1672468,6.855368 23.1672468,6.80355467 C23.1672468,3.151488 20.1851688,0.193488 16.5060779,0.193488 C13.1328312,0.193488 10.3478961,2.681688 9.90802597,5.90919467 C9.71049351,5.876328 9.50867532,5.85970133 9.30179221,5.85970133 C7.27503896,5.85970133 5.63166234,7.48911467 5.63166234,9.50094133 C5.63166234,9.60998133 5.63750649,9.71631467 5.64724675,9.82187467 C5.4201039,9.789008 5.18828571,9.77122133 4.95179221,9.77122133 C2.32425974,9.77122133 0.194649351,11.8855147 0.194649351,14.4924213 C0.194649351,17.1012613 2.32425974,19.214008 4.95179221,19.214008 L23.6425714,19.214008 C27.0590649,19.214008 29.8276364,16.4663547 29.8276364,13.076448 C29.8276364,9.68654133 27.0590649,6.93734133 23.6425714,6.93734133 Z" id="Stroke-1"></path>
                        <path d="M7.14958442,22.0777773 L5.39672727,24.7859907" id="Stroke-3"></path>
                        <path d="M14.4776104,22.0777773 L12.7263117,24.7859907" id="Stroke-5"></path>
                        <path d="M21.8067662,22.0777773 L20.0550779,24.7859907" id="Stroke-7"></path>
                        <path d="M9.09763636,26.2023507 L7.34477922,28.9101773" id="Stroke-9"></path>
                        <path d="M16.4256623,26.2023507 L14.6743636,28.9101773" id="Stroke-11"></path>
                    </g>
                </g>
            </g>
        </g>
    </g>
</svg>