<?xml version="1.0" encoding="UTF-8"?>
<svg width="34px" height="22px" viewBox="0 0 34 22" version="1.1" xmlns="http://www.w3.org/2000/svg" xmlns:xlink="http://www.w3.org/1999/xlink">
    <!-- Generator: sketchtool 52.4 (67378) - http://www.bohemiancoding.com/sketch -->
    <title>F7859A92-4EDF-4AC8-B8BF-EC95FA840EAB</title>
    <desc>Created with sketchtool.</desc>
    <g id="Web" stroke="none" stroke-width="1" fill="none" fill-rule="evenodd" stroke-linecap="round" stroke-linejoin="round">
        <g id="04_Favourite" transform="translate(-540.000000, -374.000000)" stroke="#FFFFFF" stroke-width="2">
            <g id="Group-3-Copy-5" transform="translate(120.000000, 348.000000)">
                <g id="Group-4" transform="translate(421.000000, 18.000000)">
                    <path d="M25.3208867,16.0911346 C25.1471246,16.0911346 24.9746246,16.1008924 24.8033869,16.1126832 C24.8038076,16.0594214 24.8075942,16.0049399 24.8075942,15.9504584 C24.8075942,12.1103251 21.5873149,9 17.6143469,9 C13.9720739,9 10.9642641,11.6163323 10.4896789,15.0096359 C10.2759473,14.9750767 10.0580084,14.9580004 9.83459991,14.9580004 C7.6459544,14.9580004 5.87130874,16.671322 5.87130874,18.786343 C5.87130874,18.9014047 5.87761971,19.0132138 5.888138,19.1238031 C5.64285151,19.0896505 5.39251624,19.0709479 5.13713219,19.0709479 C2.29971864,19.0709479 0,21.2937123 0,24.0352707 C0,26.7784554 2.29971864,29 5.13713219,29 L25.3208867,29 C29.0102816,29 32,26.110447 32,22.5459739 C32,18.9819073 29.0102816,16.0911346 25.3208867,16.0911346 Z" id="icon_mostly_cloudy_small"></path>
                </g>
            </g>
        </g>
    </g>
</svg>