<?xml version="1.0" encoding="UTF-8"?>
<svg width="161px" height="86px" viewBox="0 0 161 86" version="1.1" xmlns="http://www.w3.org/2000/svg" xmlns:xlink="http://www.w3.org/1999/xlink">
    <!-- Generator: sketchtool 52.4 (67378) - http://www.bohemiancoding.com/sketch -->
    <title>EF13C496-BA06-4769-B24B-6A772275B7E9</title>
    <desc>Created with sketchtool.</desc>
    <g id="Web" stroke="none" stroke-width="1" fill="none" fill-rule="evenodd" stroke-linecap="round" stroke-linejoin="round">
        <g id="03_Favourite_blank" transform="translate(-520.000000, -321.000000)" stroke="#FFFFFF">
            <g id="Group-38" transform="translate(517.000000, 322.000000)">
                <g id="Group-3">
                    <g id="icon_nothing" transform="translate(4.000000, 0.000000)">
                        <path d="M99.1001367,53.4632814 L99.1001367,60.4899873 C99.1001367,64.1946027 102.099251,67.1979873 105.79821,67.1979873 L105.867379,67.1979873 C109.567115,67.1979873 112.565452,64.1946027 112.565452,60.4899873 L112.565452,53.4632814 L99.1001367,53.4632814 Z" id="Stroke-6" stroke-width="2.7201087"></path>
                        <path d="M105.571742,53.4543312 L105.571742,61.6262769" id="Stroke-8" stroke-width="2.7201087"></path>
                        <g id="Group-28" transform="translate(54.081522, 8.950226)" stroke-width="2.7201087">
                            <path d="M14.3801655,44.3095348 L60.2334264,44.3095348" id="Stroke-20"></path>
                            <path d="M74.4168503,37.4995801 C74.4168503,58.0240054 57.8020378,74.662476 37.3067959,74.662476 C16.8115541,74.662476 0.196741576,58.0240054 0.196741576,37.4995801 C0.196741576,16.9751548 16.8115541,0.336684163 37.3067959,0.336684163 C57.8020378,0.336684163 74.4168503,16.9751548 74.4168503,37.4995801 Z" id="Stroke-26"></path>
                            <path d="M15.1732533,20.310476 L28.8623946,34.0191095" id="Stroke-1"></path>
                            <path d="M28.8623946,20.310476 L15.1732533,34.0191095" id="Stroke-2"></path>
                            <path d="M45.0280084,20.310476 L58.7175383,34.0191095" id="Stroke-3"></path>
                            <path d="M58.717344,20.310476 L45.0278141,34.0191095" id="Stroke-4"></path>
                        </g>
                        <path d="M39.9753678,26 C39.985768,25.8365052 40,25.6741114 40,25.5078641 C40,21.2404844 36.5596989,17.78067 32.3163873,17.78067 C31.8188163,17.78067 31.3338351,17.8324159 30.8630859,17.9232463 C29.0660281,14.4089336 25.4319535,12 21.231885,12 C16.7411563,12 12.888676,14.7496854 11.2470749,18.6653036 C10.1813206,18.1032557 8.97105713,17.78067 7.68416011,17.78067 C3.44030106,17.78067 0,21.2404844 0,25.5078641 C0,25.6741114 0.0147793363,25.8365052 0.0246322272,26 L39.9753678,26 Z" id="Stroke-29" stroke-width="2"></path>
                        <path d="M158.563772,10.0686154 C158.71843,9.45883258 158.810525,8.82297738 158.810525,8.16455204 C158.810525,3.91202715 155.366867,0.464244344 151.121166,0.464244344 C149.365142,0.464244344 147.752117,1.06040724 146.457734,2.05232579 C145.111669,0.939384615 143.385177,0.270452489 141.503639,0.270452489 C138.309843,0.270452489 135.568362,2.19747511 134.366851,4.95258824 C134.285248,4.94869683 134.204033,4.94013575 134.120487,4.94013575 C131.220462,4.94013575 128.855522,7.20804525 128.682212,10.0686154 L158.563772,10.0686154 Z" id="Stroke-33" stroke-width="1.94293478"></path>
                    </g>
                </g>
            </g>
        </g>
    </g>
</svg>