<?xml version="1.0" encoding="UTF-8"?>
<svg width="34px" height="24px" viewBox="0 0 34 24" version="1.1" xmlns="http://www.w3.org/2000/svg" xmlns:xlink="http://www.w3.org/1999/xlink">
    <!-- Generator: sketchtool 52.4 (67378) - http://www.bohemiancoding.com/sketch -->
    <title>99246BE3-DED8-4373-BEAE-96E8CBD99E89</title>
    <desc>Created with sketchtool.</desc>
    <g id="Web" stroke="none" stroke-width="1" fill="none" fill-rule="evenodd" stroke-linecap="round" stroke-linejoin="round">
        <g id="01_Home" transform="translate(-694.000000, -589.000000)" stroke="#FFFFFF" stroke-width="1.99480519">
            <g id="background">
                <g id="Group-9" transform="translate(695.000000, 590.000000)">
                    <g id="icon_wind_info">
                        <path d="M14.7042866,4.18028085 C13.1692418,1.59411064 17.016406,-1.4376766 20.5583761,1.33525957 C24.1003463,4.10866383 20.7661373,9.81649362 17.0999881,9.81649362 L5.49258507,9.81649362" id="Stroke-1"></path>
                        <path d="M0.23880597,13.6635915 L12.9929552,13.6635915 C14.8389254,13.6635915 19.3709851,13.9926553 19.3709851,17.6109532 C19.3709851,21.2292511 14.8389254,23.8608255 12.6581493,19.9129957" id="Stroke-3"></path>
                        <path d="M21.481791,13.1026851 L26.4957612,13.1026851 C27.815403,13.1026851 30.7178507,13.2969404 31.4433433,15.4304723 C32.1693134,17.5640043 30.7560597,18.7847702 29.5964179,19.1161745 C28.4367761,19.4471106 26.1657313,19.1803021 25.9020896,17.4348128" id="Stroke-5"></path>
                    </g>
                </g>
            </g>
        </g>
    </g>
</svg>