<?xml version="1.0" encoding="UTF-8"?>
<svg width="23px" height="29px" viewBox="0 0 23 29" version="1.1" xmlns="http://www.w3.org/2000/svg" xmlns:xlink="http://www.w3.org/1999/xlink">
    <!-- Generator: sketchtool 52.4 (67378) - http://www.bohemiancoding.com/sketch -->
    <title>644B8585-D727-4DC6-8B94-AB997E38AAEB</title>
    <desc>Created with sketchtool.</desc>
    <g id="Web" stroke="none" stroke-width="1" fill="none" fill-rule="evenodd">
        <g id="01_Home" transform="translate(-531.000000, -589.000000)" fill-rule="nonzero" stroke="#FFFFFF" stroke-width="2.2">
            <g id="background">
                <g id="Group-8" transform="translate(533.000000, 591.000000)">
                    <g id="icon_humidity_info">
                        <path d="M14.3066667,6.10687023 C13.0533333,4.42748092 11.7733333,2.67175573 10.7866667,0.839694656 C10.52,0.330788804 9.96,0 9.37333333,0 C8.78666667,0 8.22666667,0.305343511 7.96,0.839694656 C7,2.64631043 5.77333333,4.35114504 4.6,6.00508906 C2.22666667,9.28753181 0.0133333333,12.3664122 0.0133333333,15.8015267 C0.0133333333,21.1195929 3.93333333,24.9618321 9.34666667,24.9618321 C14.8133333,24.9618321 18.9466667,21.0178117 18.9466667,15.8015267 C18.9466667,12.3918575 16.68,9.33842239 14.3066667,6.10687023 Z" id="Shape"></path>
                        <path d="M8.22395036,7.49993656 C7.0116719,8.89329457 6.03641114,10.2421349 5.29816808,11.5464576" id="Path-2" stroke-linecap="round" stroke-linejoin="round"></path>
                        <path d="M3.67843688,14.3835425 L3.10847978,15.2094243" id="Path-3" stroke-linecap="round" stroke-linejoin="round" transform="translate(3.393458, 14.796483) rotate(-9.000000) translate(-3.393458, -14.796483) "></path>
                    </g>
                </g>
            </g>
        </g>
    </g>
</svg>