<?xml version="1.0" encoding="UTF-8"?>
<svg width="18px" height="34px" viewBox="0 0 18 34" version="1.1" xmlns="http://www.w3.org/2000/svg" xmlns:xlink="http://www.w3.org/1999/xlink">
    <!-- Generator: sketchtool 52.4 (67378) - http://www.bohemiancoding.com/sketch -->
    <title>08084A60-9DE5-4553-AECB-259F4F7B92D5</title>
    <desc>Created with sketchtool.</desc>
    <g id="Web" stroke="none" stroke-width="1" fill="none" fill-rule="evenodd">
        <g id="01_Home" transform="translate(-211.000000, -591.000000)">
            <g id="background">
                <g id="Group-6-Copy" transform="translate(212.000000, 591.000000)">
                    <g id="icon_temperature_info" transform="translate(0.000000, 1.000000)">
                        <path d="M12.2932513,17.92968 L12.2932513,4.35288 C12.2932513,2.05928 10.3863795,0.20008 8.03396923,0.20008 C5.68196923,0.20008 3.77550769,2.05928 3.77550769,4.35288 L3.77550769,17.92968 C1.62699487,19.29048 0.205046154,21.64968 0.205046154,24.33368 C0.205046154,28.54968 3.71027692,31.96728 8.03396923,31.96728 C12.3584821,31.96728 15.8637128,28.54968 15.8637128,24.33368 C15.8637128,21.64968 14.4413538,19.29048 12.2932513,17.92968 Z" id="Stroke-1" stroke="#FFFFFF" stroke-width="2" stroke-linecap="round" stroke-linejoin="round"></path>
                        <path d="M8.03405128,29.34492 C5.20082051,29.34492 2.89517949,27.09692 2.89517949,24.33372 C2.89517949,22.63172 3.77148718,21.05972 5.24102564,20.12892 L6.46523077,19.35292 L6.46523077,10.38892 L9.60369231,10.38892 L9.60369231,19.35292 L10.8278974,20.12892 C12.2970256,21.05972 13.1737436,22.63172 13.1737436,24.33372 C13.1737436,27.09692 10.8681026,29.34492 8.03405128,29.34492" id="Fill-3" fill="#FFFFFF"></path>
                    </g>
                </g>
            </g>
        </g>
    </g>
</svg>