<?xml version="1.0" encoding="UTF-8"?>
<svg width="88px" height="57px" viewBox="0 0 88 57" version="1.1" xmlns="http://www.w3.org/2000/svg" xmlns:xlink="http://www.w3.org/1999/xlink">
    <!-- Generator: sketchtool 52.4 (67378) - http://www.bohemiancoding.com/sketch -->
    <title>CC2E4140-834D-479E-B6F6-EFC248AB5B71</title>
    <desc>Created with sketchtool.</desc>
    <g id="Web" stroke="none" stroke-width="1" fill="none" fill-rule="evenodd" stroke-linecap="round" stroke-linejoin="round">
        <g id="01_Home" transform="translate(-807.000000, -289.000000)" stroke="#FFFFFF" stroke-width="3">
            <g id="background">
                <path d="M875.467328,309.791507 C875.011202,309.791507 874.55839,309.817365 874.108891,309.848611 C874.109995,309.707467 874.119935,309.563091 874.119935,309.418715 C874.119935,299.242361 865.666702,291 855.237661,291 C845.676694,291 837.781193,297.93328 836.535407,306.925535 C835.974362,306.833953 835.402272,306.788701 834.815825,306.788701 C829.07063,306.788701 824.412185,311.329003 824.412185,316.933809 C824.412185,317.238723 824.428752,317.535017 824.456362,317.828078 C823.812485,317.737574 823.155355,317.688012 822.484972,317.688012 C815.036761,317.688012 809,323.578338 809,330.843467 C809,338.112907 815.036761,344 822.484972,344 L875.467328,344 C885.151989,344 893,336.342685 893,326.896831 C893,317.452054 885.151989,309.791507 875.467328,309.791507 Z" id="icon_mostly_cloudy_big"></path>
            </g>
        </g>
    </g>
</svg>