<?xml version="1.0" encoding="UTF-8"?>
<svg width="82px" height="75px" viewBox="0 0 82 75" version="1.1" xmlns="http://www.w3.org/2000/svg" xmlns:xlink="http://www.w3.org/1999/xlink">
    <!-- Generator: sketchtool 52.4 (67378) - http://www.bohemiancoding.com/sketch -->
    <title>B7AD7B91-7D0C-462A-A49C-BEE65192B1BB</title>
    <desc>Created with sketchtool.</desc>
    <defs>
        <polygon id="path-1" points="0.294139535 0.4321875 25.6783256 0.4321875 25.6783256 37.5 0.294139535 37.5"></polygon>
    </defs>
    <g id="Web" stroke="none" stroke-width="1" fill="none" fill-rule="evenodd">
        <g id="01_Home" transform="translate(-801.000000, -376.000000)">
            <g id="background">
                <g id="icon_thunderstorm_big" transform="translate(803.000000, 378.000000)">
                    <path d="M56.1064186,51.0020625 L61.9166512,51.0020625 C70.9380465,51.0020625 78.247814,43.6333125 78.247814,34.5451875 C78.247814,25.4551875 70.9380465,18.0826875 61.9166512,18.0826875 C61.4906047,18.0826875 61.0682791,18.1089375 60.6496744,18.1389375 C60.6515349,18.0020625 60.6608372,17.8633125 60.6608372,17.7245625 C60.6608372,7.9314375 52.7873488,0.0001875 43.072,0.0001875 C34.1659535,0.0001875 26.8115349,6.6714375 25.6506047,15.3264375 C25.1296744,15.2383125 24.5957209,15.1933125 24.0506047,15.1933125 C18.6980465,15.1933125 14.3594419,19.5620625 14.3594419,24.9564375 C14.3594419,25.2508125 14.3724651,25.5358125 14.3966512,25.8170625 C13.7994419,25.7289375 13.1873488,25.6820625 12.564093,25.6820625 C5.62455814,25.6820625 0.000372093023,31.3520625 0.000372093023,38.3420625 C0.000372093023,45.3376875 5.62455814,51.0020625 12.564093,51.0020625 L20.4468837,51.0020625" id="Stroke-1" stroke="#FFFFFF" stroke-width="3" stroke-linecap="round" stroke-linejoin="round"></path>
                    <g id="Group-5" transform="translate(24.186047, 34.958438)">
                        <mask id="mask-2" fill="white">
                            <use xlink:href="#path-1"></use>
                        </mask>
                        <g id="Clip-4"></g>
                        <polygon id="Fill-3" fill="#FFFFFF" mask="url(#mask-2)" points="7.43460465 0.4321875 0.294139535 21.5840625 9.66530233 21.5840625 5.83460465 37.5009375 25.6783256 15.2109375 15.7266977 15.2109375 25.6783256 0.4321875"></polygon>
                    </g>
                </g>
            </g>
        </g>
    </g>
</svg>