<?xml version="1.0" encoding="UTF-8"?>
<svg width="82px" height="75px" viewBox="0 0 82 75" version="1.1" xmlns="http://www.w3.org/2000/svg" xmlns:xlink="http://www.w3.org/1999/xlink">
    <!-- Generator: sketchtool 52.4 (67378) - http://www.bohemiancoding.com/sketch -->
    <title>BD760713-419B-4B82-AEA1-5D6448D3B8C5</title>
    <desc>Created with sketchtool.</desc>
    <g id="Web" stroke="none" stroke-width="1" fill="none" fill-rule="evenodd" stroke-linecap="round" stroke-linejoin="round">
        <g id="01_Home" transform="translate(-679.000000, -287.000000)" stroke="#FFFFFF" stroke-width="3">
            <g id="background">
                <g id="icon_rain_big" transform="translate(681.000000, 288.000000)">
                    <path d="M61.9168372,18.9243205 C61.4907907,18.9243205 61.0684651,18.9505256 60.6498605,18.9786026 C60.6517209,18.8438333 60.6610233,18.7053205 60.6610233,18.5668077 C60.6610233,8.79042308 52.7875349,0.870858974 43.072186,0.870858974 C34.1661395,0.870858974 26.8117209,7.53257692 25.6507907,16.1709103 C25.1298605,16.0829359 24.5940465,16.0398846 24.0489302,16.0398846 C18.6982326,16.0398846 14.3596279,20.4011667 14.3596279,25.7863205 C14.3596279,26.0783205 14.3726512,26.3647051 14.3968372,26.6454744 C13.7996279,26.5575 13.1875349,26.5107051 12.5642791,26.5107051 C5.62474419,26.5107051 0.000558139535,32.169141 0.000558139535,39.1490641 C0.000558139535,46.130859 5.62474419,51.7874231 12.5642791,51.7874231 L61.9168372,51.7874231 C70.9382326,51.7874231 78.248,44.4312692 78.248,35.3568077 C78.248,26.2842179 70.9382326,18.9243205 61.9168372,18.9243205 Z" id="Stroke-1"></path>
                    <path d="M19.3713488,59.4531718 L12.7313488,71.5318641" id="Stroke-3"></path>
                    <path d="M38.7227907,59.4531718 L32.0827907,71.5318641" id="Stroke-5"></path>
                    <path d="M58.075907,59.4531718 L51.435907,71.5318641" id="Stroke-7"></path>
                </g>
            </g>
        </g>
    </g>
</svg>