<?xml version="1.0" encoding="UTF-8"?>
<svg width="82px" height="66px" viewBox="0 0 82 66" version="1.1" xmlns="http://www.w3.org/2000/svg" xmlns:xlink="http://www.w3.org/1999/xlink">
    <!-- Generator: sketchtool 52.4 (67378) - http://www.bohemiancoding.com/sketch -->
    <title>601049FB-04E2-4303-B60A-8795D4D9A1CD</title>
    <desc>Created with sketchtool.</desc>
    <g id="Web" stroke="none" stroke-width="1" fill="none" fill-rule="evenodd">
        <g id="01_Home" transform="translate(-935.000000, -279.000000)">
            <g id="background">
                <g id="icon_partially_cloudy_big" transform="translate(937.000000, 281.000000)">
                    <path d="M25.2906047,0 L25.2906047,5.30126471" id="Stroke-1" stroke="#FFFFFF" stroke-width="3.72093023" stroke-linecap="round" stroke-linejoin="round"></path>
                    <path d="M12.8524651,4.31383235 L15.4087442,8.72753824" id="Stroke-3" stroke="#FFFFFF" stroke-width="3.72093023" stroke-linecap="round" stroke-linejoin="round"></path>
                    <path d="M0.412465116,25.7710765 L5.52874419,25.7710765" id="Stroke-5" stroke="#FFFFFF" stroke-width="3.72093023" stroke-linecap="round" stroke-linejoin="round"></path>
                    <path d="M35.1707907,8.72716765 L37.7289302,4.31346176" id="Stroke-7" stroke="#FFFFFF" stroke-width="3.72093023" stroke-linecap="round" stroke-linejoin="round"></path>
                    <path d="M2.88148837,12.8855382 L7.49172093,15.5370971" id="Stroke-9" stroke="#FFFFFF" stroke-width="3.72093023" stroke-linecap="round" stroke-linejoin="round"></path>
                    <path d="M2.88148837,38.6582824 L7.49172093,36.0067235" id="Stroke-11" stroke="#FFFFFF" stroke-width="3.72093023" stroke-linecap="round" stroke-linejoin="round"></path>
                    <path d="M24.0498605,26.8984059 C24.5949767,26.8984059 25.1289302,26.9428765 25.6498605,27.0299647 C26.4033488,21.4804059 29.7670698,16.7572588 34.4684651,14.1223765 C31.9382326,12.1452882 28.7549767,10.9612588 25.2907907,10.9612588 C17.0786977,10.9612588 10.420093,17.5929353 10.420093,25.7718176 C10.420093,29.6574353 11.9252093,33.1947 14.3866047,35.8369941 C14.7531163,30.8396118 18.9373023,26.8984059 24.0498605,26.8984059" id="Fill-13" fill="#FFFFFF"></path>
                    <path d="M61.9168372,29.7556412 C61.4907907,29.7556412 61.0684651,29.7797294 60.6498605,29.8093765 C60.6517209,29.6741118 60.6610233,29.5369941 60.6610233,29.3998765 C60.6610233,19.7238176 52.7875349,11.8821706 43.072186,11.8821706 C34.1661395,11.8821706 26.8117209,18.4767882 25.6507907,27.0299647 C25.1298605,26.9428765 24.5940465,26.8984059 24.0489302,26.8984059 C18.6982326,26.8984059 14.3596279,31.2176118 14.3596279,36.5485235 C14.3596279,36.8357294 14.3726512,37.1192294 14.3968372,37.3971706 C13.7996279,37.3100824 13.1875349,37.2637588 12.5642791,37.2637588 C5.62474419,37.2637588 0.000558139535,42.8652 0.000558139535,49.7766706 C0.000558139535,56.6862882 5.62474419,62.2877294 12.5642791,62.2877294 L61.9168372,62.2877294 C70.9382326,62.2877294 78.248,55.0056706 78.248,46.0226118 C78.248,37.0395529 70.9382326,29.7556412 61.9168372,29.7556412 Z" id="Stroke-15" stroke="#FFFFFF" stroke-width="3" stroke-linecap="round" stroke-linejoin="round"></path>
                </g>
            </g>
        </g>
    </g>
</svg>