<?xml version="1.0" encoding="UTF-8"?>
<svg width="34px" height="31px" viewBox="0 0 34 31" version="1.1" xmlns="http://www.w3.org/2000/svg" xmlns:xlink="http://www.w3.org/1999/xlink">
    <!-- Generator: sketchtool 52.4 (67378) - http://www.bohemiancoding.com/sketch -->
    <title>D4651388-DFA2-40F3-950C-8AEA34087F6A</title>
    <desc>Created with sketchtool.</desc>
    <g id="Web" stroke="none" stroke-width="1" fill="none" fill-rule="evenodd" stroke-linecap="round" stroke-linejoin="round">
        <g id="04_Favourite" transform="translate(-540.000000, -295.000000)" stroke="#FFFFFF">
            <g id="Group-3-Copy-4" transform="translate(120.000000, 274.000000)">
                <g id="icon_rain_small" transform="translate(421.000000, 22.000000)">
                    <path d="M24.7667349,7.91514103 C24.5963163,7.91514103 24.427386,7.92555128 24.2599442,7.93670513 C24.2606884,7.88316667 24.2644093,7.82814103 24.2644093,7.77311538 C24.2644093,3.88934615 21.115014,0.743217949 17.2288744,0.743217949 C13.6664558,0.743217949 10.7246884,3.38965385 10.2603163,6.82132051 C10.0519442,6.78637179 9.8376186,6.76926923 9.61957209,6.76926923 C7.47929302,6.76926923 5.74385116,8.50183333 5.74385116,10.641141 C5.74385116,10.757141 5.74906047,10.8709103 5.75873488,10.9824487 C5.51985116,10.9475 5.27501395,10.9289103 5.02571163,10.9289103 C2.24989767,10.9289103 0.000223255814,13.1767821 0.000223255814,15.9496282 C0.000223255814,18.7232179 2.24989767,20.9703462 5.02571163,20.9703462 L24.7667349,20.9703462 C28.375293,20.9703462 31.2992,18.0480385 31.2992,14.4431154 C31.2992,10.8389359 28.375293,7.91514103 24.7667349,7.91514103 Z" id="Stroke-1" stroke-width="2"></path>
                    <path d="M7.74853953,24.0156436 L5.09253953,28.8140282" id="Stroke-3" stroke-width="1.48837209"></path>
                    <path d="M15.4891163,24.0156436 L12.8331163,28.8140282" id="Stroke-5" stroke-width="1.48837209"></path>
                    <path d="M23.2303628,24.0156436 L20.5743628,28.8140282" id="Stroke-7" stroke-width="1.48837209"></path>
                </g>
            </g>
        </g>
    </g>
</svg>