<?xml version="1.0" encoding="UTF-8"?>
<svg width="34px" height="27px" viewBox="0 0 34 27" version="1.1" xmlns="http://www.w3.org/2000/svg" xmlns:xlink="http://www.w3.org/1999/xlink">
    <!-- Generator: sketchtool 52.4 (67378) - http://www.bohemiancoding.com/sketch -->
    <title>D17B532F-4923-4E02-B9DC-CBC297C66F7F</title>
    <desc>Created with sketchtool.</desc>
    <g id="Web" stroke="none" stroke-width="1" fill="none" fill-rule="evenodd">
        <g id="04_Favourite" transform="translate(-540.000000, -443.000000)">
            <g id="Group-3-Copy-6" transform="translate(120.000000, 422.000000)">
                <g id="icon_partly_cloudy_small" transform="translate(421.000000, 22.000000)">
                    <path d="M10.1162419,0 L10.1162419,2.10367647" id="Stroke-1" stroke="#FFFFFF" stroke-width="1.48837209" stroke-linecap="round" stroke-linejoin="round"></path>
                    <path d="M5.14098605,1.71183824 L6.16349767,3.46330882" id="Stroke-3" stroke="#FFFFFF" stroke-width="1.48837209" stroke-linecap="round" stroke-linejoin="round"></path>
                    <path d="M0.164986047,10.2266176 L2.21149767,10.2266176" id="Stroke-5" stroke="#FFFFFF" stroke-width="1.48837209" stroke-linecap="round" stroke-linejoin="round"></path>
                    <path d="M14.0683163,3.46316176 L15.0915721,1.71169118" id="Stroke-7" stroke="#FFFFFF" stroke-width="1.48837209" stroke-linecap="round" stroke-linejoin="round"></path>
                    <path d="M1.15259535,5.11330882 L2.99668837,6.16551471" id="Stroke-9" stroke="#FFFFFF" stroke-width="1.48837209" stroke-linecap="round" stroke-linejoin="round"></path>
                    <path d="M1.15259535,15.3405882 L2.99668837,14.2883824" id="Stroke-11" stroke="#FFFFFF" stroke-width="1.48837209" stroke-linecap="round" stroke-linejoin="round"></path>
                    <path d="M9.61994419,10.6739706 C9.8379907,10.6739706 10.0515721,10.6916176 10.2599442,10.7261765 C10.5613395,8.52397059 11.9068279,6.64970588 13.787386,5.60411765 C12.775293,4.81955882 11.5019907,4.34970588 10.1163163,4.34970588 C6.83147907,4.34970588 4.16803721,6.98132353 4.16803721,10.2269118 C4.16803721,11.7688235 4.77008372,13.1725 5.75464186,14.2210294 C5.90124651,12.2379412 7.57492093,10.6739706 9.61994419,10.6739706" id="Fill-13" fill="#FFFFFF"></path>
                    <path d="M24.7667349,11.8077941 C24.5963163,11.8077941 24.427386,11.8173529 24.2599442,11.8291176 C24.2606884,11.7754412 24.2644093,11.7210294 24.2644093,11.6666176 C24.2644093,7.82691176 21.115014,4.71514706 17.2288744,4.71514706 C13.6664558,4.71514706 10.7246884,7.33205882 10.2603163,10.7261765 C10.0519442,10.6916176 9.8376186,10.6739706 9.61957209,10.6739706 C7.47929302,10.6739706 5.74385116,12.3879412 5.74385116,14.5033824 C5.74385116,14.6173529 5.74906047,14.7298529 5.75873488,14.8401471 C5.51985116,14.8055882 5.27501395,14.7872059 5.02571163,14.7872059 C2.24989767,14.7872059 0.000223255814,17.01 0.000223255814,19.7526471 C0.000223255814,22.4945588 2.24989767,24.7173529 5.02571163,24.7173529 L24.7667349,24.7173529 C28.375293,24.7173529 31.2992,21.8276471 31.2992,18.2629412 C31.2992,14.6982353 28.375293,11.8077941 24.7667349,11.8077941 Z" id="Stroke-15" stroke="#FFFFFF" stroke-width="2" stroke-linecap="round" stroke-linejoin="round"></path>
                </g>
            </g>
        </g>
    </g>
</svg>